<?xml version="1.0" encoding="iso-8859-1"?>
<!-- Uploaded to: SVG Repo, www.svgrepo.com, Generator: SVG Repo Mixer Tools -->
<svg height="800px" width="800px" version="1.1" id="Layer_1" xmlns="http://www.w3.org/2000/svg" xmlns:xlink="http://www.w3.org/1999/xlink" 
	 viewBox="0 0 512 512" xml:space="preserve">
<path style="fill:#5B452E;" d="M500.87,317.132c-56.444,52.226-145.124,85.895-244.87,85.895S67.574,369.358,11.13,317.131v-171.96
	c56.44,52.235,145.116,85.916,244.87,85.916s188.428-33.68,244.87-85.915V317.132z"/>
<path style="fill:#7C3200;" d="M505.401,198.018C509.716,216.648,512,236.058,512,256c0,141.384-114.615,256-256,256
	S0,397.385,0,256c0-19.944,2.284-39.352,6.6-57.982l43.091,9.209C96.294,270.554,171.344,311.652,256,311.652
	s159.707-41.098,206.309-104.425L505.401,198.018z"/>
<path style="fill:#89643B;" d="M33.391,155.826c-6.147,0-11.13-4.983-11.13-11.13V11.13C22.261,4.983,27.244,0,33.391,0
	s11.13,4.983,11.13,11.13v133.565C44.522,150.843,39.539,155.826,33.391,155.826z M489.739,144.696V11.13
	c0-6.147-4.983-11.13-11.13-11.13s-11.13,4.983-11.13,11.13v133.565c0,6.147,4.983,11.13,11.13,11.13
	S489.739,150.843,489.739,144.696z"/>
<path style="fill:#B94B00;" d="M505.4,198.018l-21.022,4.493c3.058,2.247,4.896,5.992,4.503,10.042
	c-4.311,44.434-24.397,85.574-58.087,118.974c-2.17,2.152-5.004,3.226-7.836,3.226c-2.865,0-5.729-1.099-7.905-3.294
	c-4.328-4.365-4.297-11.413,0.068-15.741c29.956-29.698,47.801-66.116,51.604-105.316c0.156-1.608,0.653-3.099,1.404-4.419
	l-5.819,1.243C415.707,270.554,340.657,311.652,256,311.652S96.293,270.554,49.691,207.228l-5.819-1.243
	c0.75,1.32,1.249,2.812,1.405,4.42c3.767,38.822,21.335,74.966,50.807,104.521c4.341,4.353,4.331,11.4-0.022,15.741
	c-2.173,2.166-5.016,3.249-7.859,3.249c-2.854,0-5.707-1.091-7.881-3.271c-33.152-33.247-52.932-74.081-57.202-118.089
	c-0.393-4.051,1.446-7.796,4.503-10.043L6.6,198.018C2.284,216.648,0,236.058,0,256c0,141.384,114.615,256,256,256
	s256-114.616,256-256C512,236.058,509.716,216.648,505.4,198.018z M125.466,408.397c-2.186,2.282-5.11,3.43-8.04,3.43
	c-2.768,0-5.542-1.026-7.699-3.093c-2.196-2.104-4.369-4.277-6.46-6.46c-4.252-4.44-4.099-11.486,0.339-15.737
	c4.439-4.252,11.484-4.1,15.737,0.339c1.871,1.953,3.817,3.899,5.783,5.783C129.566,396.911,129.717,403.957,125.466,408.397z
	 M408.734,402.273c-40.281,42.049-94.523,65.205-152.734,65.205c-24.178,0-47.894-4.049-70.492-12.036
	c-5.796-2.048-8.834-8.407-6.785-14.202c2.048-5.796,8.406-8.834,14.204-6.785c20.21,7.141,41.431,10.763,63.074,10.763
	c52.084,0,100.616-20.72,136.658-58.344c4.252-4.439,11.297-4.59,15.737-0.338S412.986,397.834,408.734,402.273z"/>
<path style="fill:#EA7C18;" d="M66.783,166.957v11.13c0,18.441-14.949,33.391-33.391,33.391l0,0C14.95,211.478,0,196.528,0,178.087
	v-11.13c0-18.441,14.949-33.391,33.391-33.391l0,0C51.833,133.565,66.783,148.516,66.783,166.957z M478.609,133.565L478.609,133.565
	c-18.442,0-33.391,14.95-33.391,33.391v11.13c0,18.441,14.949,33.391,33.391,33.391l0,0c18.442,0,33.391-14.95,33.391-33.391v-11.13
	C512,148.516,497.051,133.565,478.609,133.565z"/>
<path style="fill:#EDB311;" d="M51.942,159.536v14.841c0,8.195-6.645,14.84-14.84,14.84l0,0c-8.196,0-14.841-6.645-14.841-14.84
	v-14.841c0-8.195,6.645-14.84,14.84-14.84l0,0C45.298,144.696,51.942,151.341,51.942,159.536z M482.318,144.696L482.318,144.696
	c-8.195,0-14.84,6.645-14.84,14.84v14.841c0,8.195,6.645,14.84,14.84,14.84l0,0c8.196,0,14.84-6.645,14.84-14.84v-14.841
	C497.16,151.341,490.515,144.696,482.318,144.696z"/>
<path style="fill:#A5DDD3;" d="M389.565,77.913c0,43.03-34.883,77.913-77.913,77.913c-12.482,0-24.269-2.951-34.728-8.17
	c-3.6,11.196-14.096,19.3-26.489,19.3c-15.368,0-27.826-12.458-27.826-27.826c0-12.393,8.104-22.889,19.299-26.49
	c-5.217-10.457-8.169-22.244-8.169-34.727C233.739,34.883,268.622,0,311.652,0S389.565,34.883,389.565,77.913z M183.652,189.217
	c-15.368,0-27.826,12.458-27.826,27.826s12.458,27.826,27.826,27.826s27.826-12.458,27.826-27.826S199.021,189.217,183.652,189.217z
	"/>
<path style="fill:#006571;" d="M345.043,105.739c0,6.147-4.983,11.13-11.13,11.13h-44.522c-4.279,0-8.179-2.452-10.032-6.309
	s-1.332-8.434,1.341-11.775l30.054-37.569h-21.364c-6.147,0-11.13-4.983-11.13-11.13s4.983-11.13,11.13-11.13h44.522
	c4.279,0,8.179,2.453,10.032,6.309c1.853,3.857,1.332,8.434-1.341,11.775L312.55,94.609h21.363
	C340.06,94.609,345.043,99.592,345.043,105.739z"/>
</svg>