<!DOCTYPE svg PUBLIC "-//W3C//DTD SVG 1.1//EN" "http://www.w3.org/Graphics/SVG/1.1/DTD/svg11.dtd">
<!-- Uploaded to: SVG Repo, www.svgrepo.com, Transformed by: SVG Repo Mixer Tools -->
<svg version="1.1" id="Layer_1" xmlns="http://www.w3.org/2000/svg" xmlns:xlink="http://www.w3.org/1999/xlink" viewBox="0 0 511.982 511.982" xml:space="preserve" width="800px" height="800px" fill="#000000">
<g id="SVGRepo_bgCarrier" stroke-width="0"/>
<g id="SVGRepo_tracerCarrier" stroke-linecap="round" stroke-linejoin="round"/>
<g id="SVGRepo_iconCarrier"> <path style="fill:#7e8edd;" d="M415.98,511.982H117.326c-5.89,0-10.671-4.781-10.671-10.672V10.656 C106.656,4.765,111.437,0,117.326,0H415.98c5.891,0,10.672,4.766,10.672,10.656V501.31 C426.652,507.201,421.871,511.982,415.98,511.982z"/> <path style="fill:#E6E9ED;" d="M383.982,31.998H149.326c-5.891,0-10.671,4.766-10.671,10.656v106.668 c0,5.891,4.781,10.672,10.671,10.672h234.656c5.891,0,10.672-4.781,10.672-10.672V42.654 C394.654,36.763,389.873,31.998,383.982,31.998z"/> <path style="opacity:0.1;fill:#080808;enable-background:new ;" d="M383.982,138.651H149.326 c-5.891,0-10.671-4.766-10.671-10.656v21.327c0,5.891,4.781,10.672,10.671,10.672h234.656c5.891,0,10.672-4.781,10.672-10.672 v-21.327C394.654,133.886,389.873,138.651,383.982,138.651z"/> <path style="fill:#98c3ec;" d="M415.98,85.325H309.328c-2.828,0-5.547,1.125-7.547,3.125l-192,191.993 c-2,1.999-3.125,4.702-3.125,7.546V501.31c0,5.891,4.781,10.672,10.671,10.672H415.98c5.891,0,10.672-4.781,10.672-10.672V95.996 C426.652,90.09,421.871,85.325,415.98,85.325z"/> <path style="fill:#434A54;" d="M124.866,280.443c-4.164-4.172-10.921-4.172-15.085,0L88.454,301.77 c-4.172,4.172-4.172,10.922,0,15.094c2.078,2.078,4.812,3.125,7.539,3.125s5.461-1.047,7.539-3.125l21.335-21.344 C129.03,291.364,129.03,284.598,124.866,280.443z"/> <g> <rect x="106.658" y="405.311" style="fill:#7e8edd;" width="320" height="21.327"/> <rect x="106.658" y="319.991" style="fill:#7e8edd;" width="320" height="21.327"/> <path style="fill:#7e8edd;" d="M426.652,234.647H309.328c-5.891,0-10.672,4.781-10.672,10.672s4.781,10.672,10.672,10.672h117.324 V234.647z"/> <path style="fill:#7e8edd;" d="M426.652,149.322H309.328c-5.891,0-10.672,4.766-10.672,10.672c0,5.891,4.781,10.656,10.672,10.656 h117.324V149.322z"/> </g> <path style="fill:#656D78;" d="M313.406,86.137c-3.984-1.656-8.578-0.734-11.625,2.312l-192,191.993 c-3.046,3.046-3.96,7.64-2.312,11.624c1.656,3.984,5.539,6.578,9.858,6.578h192.001c5.891,0,10.656-4.766,10.656-10.656V95.996 C319.984,91.668,317.39,87.778,313.406,86.137z"/> <path style="opacity:0.2;fill:#FFFFFF;enable-background:new ;" d="M415.98,85.325h-21.326c5.891,0,10.672,4.765,10.672,10.671 V501.31c0,5.891-4.781,10.672-10.672,10.672h21.326c5.891,0,10.672-4.781,10.672-10.672V95.996 C426.652,90.09,421.871,85.325,415.98,85.325z"/> </g>
</svg>