<?xml version="1.0" encoding="UTF-8" standalone="no" ?>
<!DOCTYPE svg PUBLIC "-//W3C//DTD SVG 1.1//EN" "http://www.w3.org/Graphics/SVG/1.1/DTD/svg11.dtd">
<svg xmlns="http://www.w3.org/2000/svg" xmlns:xlink="http://www.w3.org/1999/xlink" version="1.1" width="1080" height="1080" viewBox="0 0 1080 1080" xml:space="preserve">
<desc>Created with Fabric.js 5.2.4</desc>
<defs>
</defs>
<g transform="matrix(1 0 0 1 540 540)" id="968559cb-27d4-484d-b611-47798dcee250"  >
</g>
<g transform="matrix(1 0 0 1 540 540)" id="ef387d74-7747-4023-8f7a-27e52e8750f6"  >
<rect style="stroke: none; stroke-width: 1; stroke-dasharray: none; stroke-linecap: butt; stroke-dashoffset: 0; stroke-linejoin: miter; stroke-miterlimit: 4; fill: rgb(255,255,255); fill-rule: nonzero; opacity: 1; visibility: hidden;" vector-effect="non-scaling-stroke"  x="-540" y="-540" rx="0" ry="0" width="1080" height="1080" />
</g>
<g transform="matrix(1.28 0 0 1.28 540 540)"  >
<g style="" vector-effect="non-scaling-stroke"   >
		<g transform="matrix(22.22 0 0 22.22 92.68 0.68)"  >
<path style="stroke: none; stroke-width: 1; stroke-dasharray: none; stroke-linecap: butt; stroke-dashoffset: 0; stroke-linejoin: miter; stroke-miterlimit: 4; fill: rgb(244,144,12); fill-rule: nonzero; opacity: 1;" vector-effect="non-scaling-stroke"  transform=" translate(-22.19, -21.9)" d="M 16.812 33 C 16.224 33 15.700000000000001 32.63 15.502 32.076 L 8.549 12.608 C 8.397264067861894 12.190913921408068 8.462058419061202 11.725742914532107 8.722 11.366 C 8.982999999999999 10.997 9.407 10.802999999999999 9.859 10.802999999999999 L 26.171999999999997 10.802999999999999 C 26.728999999999996 10.802999999999999 27.230999999999998 11.107999999999999 27.450999999999997 11.62 L 35.794 31.074999999999996 C 35.977999999999994 31.504999999999995 35.934 31.991999999999997 35.678 32.382 C 35.418715729381596 32.77023584855356 34.98185088357405 33.00237899103771 34.515 33 L 16.812 33 z" stroke-linecap="round" />
</g>
		<g transform="matrix(22.22 0 0 22.22 -181.18 -0.03)"  >
<path style="stroke: none; stroke-width: 1; stroke-dasharray: none; stroke-linecap: butt; stroke-dashoffset: 0; stroke-linejoin: miter; stroke-miterlimit: 4; fill: rgb(255,204,77); fill-rule: nonzero; opacity: 1;" vector-effect="non-scaling-stroke"  transform=" translate(-9.86, -21.87)" d="M 1.515 33 C 1.0479999999999998 33 0.6109999999999999 32.764 0.353 32.375 C 0.09678126116685881 31.983673617206342 0.053245017621520785 31.490137752877725 0.23699999999999988 31.06 L 8.585 11.581 C 8.804888407287628 11.070367039892927 9.307535134556868 10.73954677367141 9.863500000000002 10.73954677367141 C 10.419464865443134 10.73954677367141 10.922111592712374 11.070367039892927 11.142000000000001 11.581 L 19.49 31.06 C 19.674617741743184 31.489791674614157 19.63085352059476 31.983596695246028 19.37352523281357 32.37422023068852 C 19.116196945032378 32.76484376613102 18.679765532579193 32.999974214346665 18.212 33 L 1.515 33 z" stroke-linecap="round" />
</g>
		<g transform="matrix(22.22 0 0 22.22 -181.28 38.23)"  >
<path style="stroke: none; stroke-width: 1; stroke-dasharray: none; stroke-linecap: butt; stroke-dashoffset: 0; stroke-linejoin: miter; stroke-miterlimit: 4; fill: rgb(41,47,51); fill-rule: nonzero; opacity: 1;" vector-effect="non-scaling-stroke"  transform=" translate(-9.86, -23.59)" d="M 9.859 14.182 L 7.077 33 L 12.64 33 z" stroke-linecap="round" />
</g>
		<g transform="matrix(22.22 0 0 22.22 -181.28 230.18)"  >
<path style="stroke: none; stroke-width: 1; stroke-dasharray: none; stroke-linecap: butt; stroke-dashoffset: 0; stroke-linejoin: miter; stroke-miterlimit: 4; fill: rgb(255,172,51); fill-rule: nonzero; opacity: 1;" vector-effect="non-scaling-stroke"  transform=" translate(-9.86, -32.23)" d="M 15.46 31.456 L 16.081 33 L 12.64 33 z M 4.2570000000000014 31.456 L 3.636 33 L 7.077 33 z" stroke-linecap="round" />
</g>
		<g transform="matrix(22.22 0 0 22.22 -181.28 38.23)"  >
<path style="stroke: none; stroke-width: 1; stroke-dasharray: none; stroke-linecap: butt; stroke-dashoffset: 0; stroke-linejoin: miter; stroke-miterlimit: 4; fill: rgb(255,232,182); fill-rule: nonzero; opacity: 1;" vector-effect="non-scaling-stroke"  transform=" translate(-9.86, -23.59)" d="M 12.64 33 C 12.64 33 15.169 32.355 16.406 31.214 L 9.859 14.182 L 12.64 33 z M 7.077000000000001 33 C 7.077000000000001 33 4.548000000000001 32.355 3.311000000000001 31.214 L 9.857000000000001 14.183 L 7.077 33 z" stroke-linecap="round" />
</g>
</g>
</g>
</svg>